<svg xmlns="http://www.w3.org/2000/svg" width="39.999" height="37.175" viewBox="0 0 39.999 37.175"><g transform="translate(-19.864 -27.5)"><g transform="translate(23.925 40.962)"><path d="M110.3,184.548a.461.461,0,0,1-.461-.461v-5.123a1.957,1.957,0,0,0-1.955-1.955H103.4a1.958,1.958,0,0,0-1.955,1.955v5.124a.461.461,0,0,1-.921,0v-5.124a2.88,2.88,0,0,1,2.877-2.876h4.479a2.88,2.88,0,0,1,2.876,2.876v5.124A.461.461,0,0,1,110.3,184.548Z" transform="translate(-89.649 -162.031)" fill="#f8b500"/><path d="M111.091,143.118a3.819,3.819,0,1,1,3.819-3.819,3.819,3.819,0,0,1-3.819,3.819Zm0-6.716a2.9,2.9,0,1,0,2.9,2.9A2.9,2.9,0,0,0,111.091,136.4Z" transform="translate(-95.152 -128.905)" fill="#f8b500"/><path d="M184.666,130.2a.461.461,0,0,1-.461-.461V126.6a1.02,1.02,0,0,0-1.019-1.019h-2.744a1.02,1.02,0,0,0-1.019,1.019v3.139a.461.461,0,1,1-.921,0V126.6a1.943,1.943,0,0,1,1.94-1.94h2.744a1.943,1.943,0,0,1,1.94,1.94v3.139A.461.461,0,0,1,184.666,130.2Z" transform="translate(-153.181 -120.08)" fill="#f8b500"/><path d="M185.153,104.826a2.518,2.518,0,1,1,2.518-2.518,2.518,2.518,0,0,1-2.518,2.518Zm0-4.114a1.6,1.6,0,1,0,1.6,1.6A1.6,1.6,0,0,0,185.153,100.712Z" transform="translate(-156.553 -99.791)" fill="#f8b500"/><path d="M48.067,130.2a.461.461,0,0,1-.461-.461V126.6a1.02,1.02,0,0,0-1.019-1.019H43.844a1.021,1.021,0,0,0-1.019,1.019v3.139a.461.461,0,1,1-.921,0V126.6a1.943,1.943,0,0,1,1.941-1.94h2.744a1.943,1.943,0,0,1,1.94,1.94v3.139A.461.461,0,0,1,48.067,130.2Z" transform="translate(-41.903 -120.08)" fill="#f8b500"/><path d="M48.552,104.826a2.518,2.518,0,1,1,2.517-2.518,2.518,2.518,0,0,1-2.517,2.518Zm0-4.114a1.6,1.6,0,1,0,1.6,1.6A1.6,1.6,0,0,0,48.552,100.712Z" transform="translate(-45.273 -99.791)" fill="#f8b500"/></g><path d="M87.62,162.55a.462.462,0,0,0-.464.461,10.84,10.84,0,0,1-21.679,0,.464.464,0,0,0-.927,0,11.767,11.767,0,0,0,23.534,0,.462.462,0,0,0-.464-.461Z" transform="translate(-36.453 -110.025)" fill="#301353"/><path d="M163.8,79.037a7.339,7.339,0,1,0,7.339,7.339A7.339,7.339,0,0,0,163.8,79.037Zm0,13.758a6.418,6.418,0,1,1,6.418-6.418A6.418,6.418,0,0,1,163.8,92.795Z" transform="translate(-111.279 -41.981)" fill="#301353"/><path d="M34.543,86.376A7.339,7.339,0,1,0,27.2,93.715,7.34,7.34,0,0,0,34.543,86.376ZM27.2,92.794a6.418,6.418,0,1,1,6.418-6.418A6.418,6.418,0,0,1,27.2,92.794Z" transform="translate(0 -41.98)" fill="#301353"/><path d="M91.748,36.012l1.209.312L92.323,37.4a1.051,1.051,0,0,0,.163,1.277l.947.947a1.052,1.052,0,0,0,1.277.162l1.075-.635.312,1.21a1.051,1.051,0,0,0,1.018.788h1.339a1.051,1.051,0,0,0,1.018-.788l.312-1.21,1.076.635a1.051,1.051,0,0,0,1.276-.163l.947-.947a1.052,1.052,0,0,0,.162-1.277l-.634-1.075,1.21-.312a1.051,1.051,0,0,0,.788-1.018v-1.34a1.052,1.052,0,0,0-.787-1.018l-1.21-.311.635-1.076a1.05,1.05,0,0,0-.163-1.277l-.947-.947a1.052,1.052,0,0,0-1.277-.163l-1.075.635-.312-1.21a1.051,1.051,0,0,0-1.018-.788H97.115a1.051,1.051,0,0,0-1.018.788L95.785,29.5l-1.076-.634a1.051,1.051,0,0,0-1.277.163l-.947.947a1.051,1.051,0,0,0-.163,1.277l.635,1.075-1.21.311a1.052,1.052,0,0,0-.788,1.017v1.34A1.051,1.051,0,0,0,91.748,36.012Zm.133-2.358a.13.13,0,0,1,.1-.126l1.8-.464a.461.461,0,0,0,.282-.68l-.946-1.6a.13.13,0,0,1,.02-.158l.947-.947a.129.129,0,0,1,.158-.02l1.6.946a.461.461,0,0,0,.68-.282l.464-1.8a.13.13,0,0,1,.126-.1h1.339a.13.13,0,0,1,.126.1l.464,1.8a.461.461,0,0,0,.68.282l1.6-.946a.131.131,0,0,1,.158.02l.947.947a.13.13,0,0,1,.02.158l-.946,1.6a.461.461,0,0,0,.281.68l1.8.464a.131.131,0,0,1,.1.126v1.34a.13.13,0,0,1-.1.126l-1.8.464a.461.461,0,0,0-.282.68l.946,1.6a.131.131,0,0,1-.02.158l-.947.947a.131.131,0,0,1-.158.02l-1.6-.946a.461.461,0,0,0-.68.282l-.464,1.8a.13.13,0,0,1-.126.1H97.114a.13.13,0,0,1-.126-.1l-.464-1.8a.461.461,0,0,0-.68-.282l-1.6.946a.131.131,0,0,1-.158-.02l-.947-.947a.13.13,0,0,1-.02-.158l.946-1.6a.461.461,0,0,0-.282-.68l-1.8-.464a.13.13,0,0,1-.1-.126Z" transform="translate(-57.92)" fill="#f8b500"/><path d="M116.87,55.924a2.514,2.514,0,1,1,2.514-2.514A2.514,2.514,0,0,1,116.87,55.924Zm0-4.106a1.593,1.593,0,1,0,1.593,1.593A1.593,1.593,0,0,0,116.87,51.818Z" transform="translate(-77.006 -19.085)" fill="#f8b500"/></g></svg>