<svg xmlns="http://www.w3.org/2000/svg" width="40.731" height="39.485" viewBox="0 0 40.731 39.485"><g transform="translate(-49.437 -65.974)"><g transform="translate(49.437 65.974)"><g transform="translate(4.533 22.054)"><path d="M95.408,372.75h8.742v1.506H95.408Z" transform="translate(-95.408 -364.557)" fill="#f8b500"/><path d="M327.926,372.75h8.742v1.506h-8.742Z" transform="translate(-305 -364.557)" fill="#f8b500"/><path d="M214.714,289.65h8.742v1.506h-8.742Z" transform="translate(-202.951 -289.65)" fill="#f8b500"/><path d="M107.74,415h6.31v2.567h-6.31Z" transform="translate(-106.524 -402.637)" fill="#301353"/><path d="M340.26,415h6.31v2.567h-6.31Z" transform="translate(-316.118 -402.637)" fill="#301353"/><path d="M227.048,331.9h6.31v2.567h-6.31Z" transform="translate(-214.069 -327.731)" fill="#301353"/></g><g transform="translate(0)"><path d="M54.77,167.505a.493.493,0,0,0,.986,0,5.734,5.734,0,0,0-.989-3.226,4.8,4.8,0,0,1-.43-.786l-1.65-3.831-.017-.062a.494.494,0,0,0-.109-.2l-2.094-2.336a.172.172,0,0,1,.012-.241l.015-.014a.928.928,0,0,1,1.311.072l1.589,1.772a.493.493,0,0,0,.669.06l.32-.248a.493.493,0,0,0,.19-.389V151.95a.56.56,0,0,1,.559-.559.6.6,0,0,1,.559.586v5.787a.493.493,0,0,0,.986,0v-7.143a.559.559,0,1,1,1.118,0v7.143a.493.493,0,0,0,.986,0v-5.793a.592.592,0,0,1,.559-.581.56.56,0,0,1,.559.559v5.814a.493.493,0,0,0,.986,0V153.3a.59.59,0,0,1,.559-.579.56.56,0,0,1,.559.559v9.811a2.939,2.939,0,0,1-.506,1.652,3.92,3.92,0,0,0-.676,2.2v.558a.493.493,0,0,0,.986,0v-.558a2.938,2.938,0,0,1,.506-1.652,3.92,3.92,0,0,0,.676-2.205v-9.81a1.547,1.547,0,0,0-1.545-1.545,1.491,1.491,0,0,0-.563.11,1.547,1.547,0,0,0-1.541-1.439,1.488,1.488,0,0,0-.563.11,1.545,1.545,0,0,0-3.083,0,1.5,1.5,0,0,0-.563-.109,1.547,1.547,0,0,0-1.545,1.545v5.442l-1.049-1.17a1.914,1.914,0,0,0-2.7-.149l-.016.014a1.159,1.159,0,0,0-.089,1.635l2.016,2.249c.005.017.011.034.018.05l1.664,3.864a5.792,5.792,0,0,0,.519.949,4.75,4.75,0,0,1,.82,2.673Z" transform="translate(-49.437 -140.882)" fill="#301353"/><path d="M99.643,347.222H90.9a.493.493,0,0,0-.493.493v3.53a.493.493,0,0,0,.493.493h.723v4.733a.493.493,0,0,0,.493.493h6.31a.493.493,0,0,0,.493-.493v-4.733h.723a.493.493,0,0,0,.493-.493v-3.53A.493.493,0,0,0,99.643,347.222Zm-1.709,8.756H92.61v-4.24h5.324Zm1.216-5.226H91.394v-2.544H99.15Z" transform="translate(-86.368 -319.492)" fill="#301353"/><path d="M174.077,84.4a.493.493,0,1,0,.986,0,5.736,5.736,0,0,0-.989-3.226,4.76,4.76,0,0,1-.43-.786l-1.65-3.831-.017-.062a.493.493,0,0,0-.109-.2l-2.094-2.336a.171.171,0,0,1-.044-.124.187.187,0,0,1,.071-.131.929.929,0,0,1,1.311.072l1.589,1.772a.493.493,0,0,0,.669.06l.32-.248a.493.493,0,0,0,.19-.389V68.848a.559.559,0,0,1,.559-.559.6.6,0,0,1,.559.586v5.787a.493.493,0,1,0,.986,0V67.519a.559.559,0,1,1,1.118,0v7.143a.493.493,0,1,0,.986,0V68.869a.592.592,0,0,1,.559-.581.56.56,0,0,1,.559.559v5.814a.493.493,0,1,0,.986,0V70.2a.59.59,0,0,1,.559-.58.56.56,0,0,1,.559.559v9.811a2.939,2.939,0,0,1-.506,1.652,3.921,3.921,0,0,0-.676,2.205V84.4a.493.493,0,1,0,.986,0v-.558a2.937,2.937,0,0,1,.507-1.652,3.921,3.921,0,0,0,.676-2.2V70.177a1.547,1.547,0,0,0-1.545-1.545,1.49,1.49,0,0,0-.563.11,1.547,1.547,0,0,0-1.541-1.439,1.488,1.488,0,0,0-.563.11,1.545,1.545,0,0,0-3.083,0,1.5,1.5,0,0,0-.563-.109,1.545,1.545,0,0,0-1.545,1.545V74.29l-1.049-1.17a1.914,1.914,0,0,0-2.717-.135,1.157,1.157,0,0,0-.089,1.635l2.016,2.248a.511.511,0,0,0,.019.05l1.664,3.864a5.775,5.775,0,0,0,.519.949,4.754,4.754,0,0,1,.819,2.673Z" transform="translate(-156.981 -65.974)" fill="#301353"/><path d="M218.949,264.122h-8.742a.493.493,0,0,0-.493.493v3.53a.493.493,0,0,0,.493.493h.723v4.733a.493.493,0,0,0,.493.493h6.31a.493.493,0,0,0,.493-.493v-4.733h.723a.493.493,0,0,0,.493-.493v-3.53A.493.493,0,0,0,218.949,264.122Zm-1.709,8.756h-5.324v-4.24h5.324Zm1.216-5.226H210.7v-2.544h7.756Z" transform="translate(-193.911 -244.585)" fill="#301353"/><path d="M338.25,156.073a1.916,1.916,0,0,0-2.7.147l-1.049,1.17v-5.442a1.547,1.547,0,0,0-1.545-1.545,1.491,1.491,0,0,0-.563.109,1.545,1.545,0,0,0-3.083,0,1.49,1.49,0,0,0-.563-.11,1.547,1.547,0,0,0-1.541,1.439,1.5,1.5,0,0,0-.563-.11,1.547,1.547,0,0,0-1.545,1.545v9.811a3.922,3.922,0,0,0,.676,2.2,2.939,2.939,0,0,1,.507,1.652v.558a.493.493,0,1,0,.986,0v-.558a3.923,3.923,0,0,0-.676-2.205,2.938,2.938,0,0,1-.506-1.652v-9.81a.56.56,0,0,1,.559-.559.59.59,0,0,1,.559.58v4.464a.493.493,0,0,0,.986,0v-5.814a.56.56,0,0,1,.559-.559.592.592,0,0,1,.559.58v5.793a.493.493,0,0,0,.986,0v-7.143a.559.559,0,1,1,1.118,0v7.143a.493.493,0,1,0,.986,0v-5.787a.6.6,0,0,1,.559-.586.56.56,0,0,1,.559.559v6.125a.493.493,0,0,0,.191.389l.32.248a.492.492,0,0,0,.669-.06l1.589-1.772a.922.922,0,0,1,.641-.307.934.934,0,0,1,.684.248.172.172,0,0,1,.013.242l-2.094,2.336a.494.494,0,0,0-.109.2l-1.667,3.894a4.79,4.79,0,0,1-.43.786,5.736,5.736,0,0,0-.989,3.226.493.493,0,0,0,.986,0,4.753,4.753,0,0,1,.82-2.673,5.77,5.77,0,0,0,.519-.948l1.664-3.864q.01-.024.018-.05l2.017-2.249a1.164,1.164,0,0,0-.1-1.647Z" transform="translate(-297.915 -140.881)" fill="#301353"/><path d="M332.161,347.222h-8.742a.493.493,0,0,0-.493.493v3.53a.493.493,0,0,0,.493.493h.723v4.733a.493.493,0,0,0,.493.493h6.31a.493.493,0,0,0,.493-.493v-4.733h.723a.493.493,0,0,0,.493-.493v-3.53a.493.493,0,0,0-.493-.493Zm-1.709,8.756h-5.324v-4.24h5.324Zm1.216-5.226h-7.756v-2.544h7.756Z" transform="translate(-295.961 -319.492)" fill="#301353"/><path d="M219.107,384.586a4.035,4.035,0,1,0,4.035,4.035A4.04,4.04,0,0,0,219.107,384.586Zm0,7.085a3.049,3.049,0,1,1,3.049-3.049A3.053,3.053,0,0,1,219.107,391.671Z" transform="translate(-198.741 -353.172)" fill="#f8b500"/></g><path d="M237.165,413.246a.493.493,0,0,1-.37-.167l-1.114-1.262a.493.493,0,1,1,.739-.652l.741.84,1.6-1.839a.493.493,0,0,1,.744.647l-1.967,2.264a.493.493,0,0,1-.37.17Z" transform="translate(-217.208 -376.076)" fill="#f8b500"/></g></g></svg>