<svg xmlns="http://www.w3.org/2000/svg" width="40.631" height="38.163" viewBox="0 0 40.631 38.163"><g transform="translate(-76 -53.626)"><g transform="translate(76 53.626)"><g transform="translate(3.107 9.291)"><path d="M178.593,225.034v-1.258h1.989v1.258l-.326.283.831,4.628-1.463,4.916-1.5-4.916.846-4.628Z" transform="translate(-171.137 -216.242)" fill="#301353"/><path d="M107.424,299.082v11.863a1.979,1.979,0,0,0,1.346-1.874v-10.95h-.386A.96.96,0,0,0,107.424,299.082Z" transform="translate(-107.424 -283.237)" fill="#301353"/><path d="M137.764,344.187h-2.9a.2.2,0,0,1-.2-.2V343.2a.2.2,0,0,1,.2-.2h2.9a.2.2,0,0,1,.2.2v.791A.2.2,0,0,1,137.764,344.187Z" transform="translate(-131.972 -323.677)" fill="#301353"/><path d="M266.458,310.946V299.082a.96.96,0,0,0-.96-.96h-.386v10.95a1.979,1.979,0,0,0,1.346,1.874Z" transform="translate(-249.52 -283.237)" fill="#301353"/><path d="M218.346,344.187h2.9a.2.2,0,0,0,.2-.2V343.2a.2.2,0,0,0-.2-.2h-2.9a.2.2,0,0,0-.2.2v.791A.2.2,0,0,0,218.346,344.187Z" transform="translate(-207.199 -323.677)" fill="#301353"/><path d="M282.634,148.642a9.95,9.95,0,0,1,.057-1.056,9.852,9.852,0,0,0,19.59,0,9.85,9.85,0,0,1-9.8,10.908,9.807,9.807,0,0,1-5.536-1.7h0l-4.1,1.465,2.9-2.437a9.822,9.822,0,0,1-3.107-7.178Z" transform="translate(-265.309 -147.586)" fill="#f8b500"/></g><path d="M321.214,146.079a1.337,1.337,0,1,1-1.337-1.337A1.337,1.337,0,0,1,321.214,146.079Z" transform="translate(-294.557 -135.732)" fill="#f8b500"/><path d="M371.424,146.079a1.337,1.337,0,1,1-1.337-1.337A1.337,1.337,0,0,1,371.424,146.079Z" transform="translate(-339.802 -135.732)" fill="#f8b500"/><path d="M421.634,146.079a1.337,1.337,0,1,1-1.337-1.337A1.337,1.337,0,0,1,421.634,146.079Z" transform="translate(-385.047 -135.732)" fill="#f8b500"/><path d="M327.315,279.8a.221.221,0,0,0-.148-.376,2.456,2.456,0,0,1-1.989-3.623,2.455,2.455,0,0,0,1.553,4.583Z" transform="translate(-299.385 -253.829)" fill="#f8b500"/><path d="M395.87,354.608,391.4,350.6l-.773.773,4.465,4.012Z" transform="translate(-359.521 -321.231)" fill="#f8b500"/><path d="M353.976,331.311l1.222-1.222,2.586,2.586-1.222,1.222Z" transform="translate(-326.489 -302.752)" fill="#f8b500"/><g transform="translate(0 0)"><path d="M210.481,126.9a.723.723,0,1,0-.723-.723A.723.723,0,0,0,210.481,126.9Z" transform="translate(-196.532 -118.348)" fill="#301353"/><path d="M162.107,125.45a.723.723,0,1,0,.723.723A.723.723,0,0,0,162.107,125.45Z" transform="translate(-152.941 -118.348)" fill="#301353"/><path d="M178.014,159.971a1.25,1.25,0,0,1-1.77,0,.494.494,0,0,0-.7.7,2.239,2.239,0,0,0,3.168,0,.494.494,0,1,0-.7-.7Z" transform="translate(-165.572 -149.325)" fill="#301353"/><path d="M127.753,62.492a4.332,4.332,0,0,0,3.579-2.422,10.02,10.02,0,0,0,6.8,2.566,8.957,8.957,0,0,0,1.63-.145.494.494,0,0,0,.4-.486,6.5,6.5,0,0,0-13,0,.495.495,0,0,0,.583.487Zm5.915-5.833a5.453,5.453,0,0,1,5.493,4.926c-2.848.358-6.252-.865-7.616-2.786a.494.494,0,0,0-.4-.208.5.5,0,0,0-.094.009.5.5,0,0,0-.387.37,2.965,2.965,0,0,1-2.465,2.415,5.462,5.462,0,0,1,5.473-4.725Z" transform="translate(-122.11 -55.468)" fill="#301353"/><path d="M129.2,134.082a.494.494,0,1,0-.976.158c.573,3.547,3.259,6.122,6.388,6.122s5.815-2.574,6.388-6.122a.494.494,0,1,0-.976-.158c-.495,3.065-2.771,5.29-5.412,5.29s-4.917-2.225-5.412-5.29Z" transform="translate(-123.057 -125.752)" fill="#301353"/><path d="M98.659,208.975a.494.494,0,0,0-.494.494v10.392h-2.97v-7.439a.494.494,0,0,0-.989,0v10.905a10.423,10.423,0,0,1-6.116,2.083v-7.243l4.345-5.6a.494.494,0,0,0-.076-.684l-.625-.517,1.06-.483a.494.494,0,0,0,.271-.316l1.334-4.729h1.218a.494.494,0,0,0,0-.989H91.3v-1.169a.506.506,0,0,0-.009-.085.493.493,0,0,0-.7-.532l-3.038,1.456-3.038-1.456a.493.493,0,0,0-.7.532.486.486,0,0,0-.009.085v1.169H79.537A3.541,3.541,0,0,0,76,208.392v14.982a2.472,2.472,0,0,0,4.722,1.026,11.851,11.851,0,0,0,6.836,2.011H87.6a11.854,11.854,0,0,0,6.836-2.011,2.472,2.472,0,0,0,4.722-1.026v-13.9a.5.5,0,0,0-.495-.495Zm-13.825,2.209a.494.494,0,0,0-.285-.385l-1.57-.716-1.2-4.24H83.94L87.1,216.231v.374l-3.307-4.26.864-.714A.5.5,0,0,0,84.833,211.185Zm7.341-1.1-1.57.716a.494.494,0,0,0-.11.831l.864.714-3.27,4.211v-.327l3.089-10.387H93.37Zm-4.617-4.517a.493.493,0,0,0,.214-.049l2.544-1.219v.978l-2.726,9.165L84.8,205.275V204.3l2.544,1.219a.488.488,0,0,0,.214.049Zm-8.021.277h1.218l1.334,4.729a.494.494,0,0,0,.271.316l1.06.483-.625.517a.494.494,0,0,0-.076.684l4.369,5.627c0,.011.009.021.013.031v7.181a10.438,10.438,0,0,1-6.153-2.084V212.423a.494.494,0,1,0-.989,0v7.439h-2.97V208.391a2.551,2.551,0,0,1,2.548-2.548Zm-1.063,19.015a1.487,1.487,0,0,1-1.485-1.485v-2.522h2.97v2.522A1.487,1.487,0,0,1,78.474,224.858Zm18.205,0a1.487,1.487,0,0,1-1.485-1.485v-2.522h2.97v2.522A1.487,1.487,0,0,1,96.679,224.858Z" transform="translate(-76 -188.247)" fill="#301353"/><path d="M287.981,53.626a10.348,10.348,0,0,0-8.722,15.914l-1.385,3.881a.494.494,0,0,0,.632.632l3.872-1.381a10.347,10.347,0,1,0,5.6-19.045Zm0,19.7a9.309,9.309,0,0,1-5.258-1.617.493.493,0,0,0-.444-.057l-3.123,1.114,1.117-3.13a.494.494,0,0,0-.056-.443,9.358,9.358,0,1,1,7.764,4.132Z" transform="translate(-257.696 -53.626)" fill="#301353"/><path d="M322.3,273.644a.494.494,0,0,0-.152-.977,1.97,1.97,0,0,1-1.69-.551,1.961,1.961,0,1,1,3.32-1.059.494.494,0,1,0,.975.164,2.95,2.95,0,1,0-2.9,2.457,2.9,2.9,0,0,0,.451-.035Z" transform="translate(-294.874 -246.604)" fill="#301353"/><path d="M350.9,302.058l.687-.687a.494.494,0,0,0,0-.7L349,298.085a.494.494,0,0,0-.7,0l-3.906,3.906a.494.494,0,0,0,0,.7l2.586,2.586a.494.494,0,0,0,.7,0l.687-.687,4.129,3.71a.494.494,0,0,0,.68-.018l.2-.2a.871.871,0,0,1-.056.5.849.849,0,0,1-.807.539h-8.3a.494.494,0,0,0,0,.989h8.3a1.862,1.862,0,0,0,1.619-2.782l.46-.46a.5.5,0,0,0,.018-.68Zm-3.569,2.17-1.887-1.887,3.207-3.207,1.887,1.887Zm5.478,3.023-3.729-3.35,1.131-1.13,3.35,3.729Z" transform="translate(-317.249 -273.782)" fill="#301353"/></g></g></g></svg>