<svg xmlns="http://www.w3.org/2000/svg" width="28.855" height="40.513" viewBox="0 0 28.855 40.513"><g transform="translate(-115.7 -49.258)"><g transform="translate(115.7 49.258)"><g transform="translate(0.514 0.64)"><path d="M147.17,372.666h22.383v3.451H147.17Z" transform="translate(-144.448 -340.048)" fill="#f8b500"/><path d="M190.152,55.478c-.875,6.326-4.253,14.794-8.288,14.794s-7.413-8.468-8.288-14.794a.56.56,0,0,0-.21.458c.223,6.319,3.942,17.115,8.5,17.115s8.275-10.8,8.5-17.115a.561.561,0,0,0-.21-.458Z" transform="translate(-167.951 -55.478)" fill="#301353"/><path d="M224.2,252.666q-.468,1.89-1.114,3.781h6.769q-.646-1.891-1.114-3.781Z" transform="translate(-212.561 -232.388)" fill="#f8b500"/><path d="M146.882,415.047H122.345a1.645,1.645,0,0,1-1.425-.823,1.646,1.646,0,0,0,1.425,2.468h24.537a1.646,1.646,0,0,0,1.425-2.468A1.645,1.645,0,0,1,146.882,415.047Z" transform="translate(-120.7 -377.333)" fill="#301353"/></g><path d="M142.4,85.452h-.563V78.4a2.209,2.209,0,0,0-2.207-2.206h-1.5v-.821a1.931,1.931,0,0,0-1.929-1.928h-2.319a44.038,44.038,0,0,1-1.576-6.169,10.9,10.9,0,0,0,3.239-3.92c.978-.263,6.9-2.07,6.9-7.211V54.521a1.567,1.567,0,0,0-1.566-1.566h-2a23.276,23.276,0,0,0,.252-2.582,1.078,1.078,0,0,0-1.079-1.115H122.2a1.078,1.078,0,0,0-1.079,1.115,23.272,23.272,0,0,0,.252,2.582h-2a1.567,1.567,0,0,0-1.566,1.566v1.621c0,5.141,5.927,6.949,6.9,7.211a10.9,10.9,0,0,0,3.239,3.92,44.044,44.044,0,0,1-1.576,6.169h-2.319a1.931,1.931,0,0,0-1.929,1.928v.821h-1.5a2.209,2.209,0,0,0-2.207,2.206v7.054h-.563a2.159,2.159,0,1,0,0,4.319H142.4a2.159,2.159,0,1,0,0-4.319Zm-1.511-31.469a.538.538,0,0,1,.537.537v1.621c0,3.555-3.459,5.277-5.229,5.926a34.7,34.7,0,0,0,2.521-8.085Zm-22.052,2.159V54.521a.538.538,0,0,1,.537-.537h2.17a34.7,34.7,0,0,0,2.521,8.085c-1.769-.649-5.229-2.371-5.229-5.926Zm3.311-5.805a.047.047,0,0,1,.013-.035.051.051,0,0,1,.038-.016H138.06a.051.051,0,0,1,.038.016.047.047,0,0,1,.013.035c-.2,5.674-3.157,14.321-6.616,16.234l0,0a3.471,3.471,0,0,1-.336.164l-.013.006q-.077.032-.153.059l-.025.009c-.049.017-.1.033-.148.046l-.024.007c-.051.014-.1.027-.153.037h-.006a2.448,2.448,0,0,1-1.009,0h-.006c-.051-.011-.1-.023-.153-.037l-.024-.007c-.049-.014-.1-.03-.148-.046l-.025-.009c-.051-.018-.1-.037-.153-.059l-.013-.006a3.471,3.471,0,0,1-.336-.164l0,0c-3.459-1.913-6.416-10.56-6.616-16.234Zm6.762,17.427.036.011q.126.044.253.08l.067.016c.073.019.146.035.219.049l.075.013q.114.019.228.031l.054.006c.1.008.192.014.289.014s.193-.006.289-.014l.054-.006q.115-.011.228-.031l.075-.013c.073-.014.146-.03.219-.049l.067-.016q.127-.035.253-.08l.036-.011a45.088,45.088,0,0,0,1.449,5.678h-5.342a45.209,45.209,0,0,0,1.449-5.678Zm-5.753,7.607a.9.9,0,0,1,.9-.9H136.2a.9.9,0,0,1,.9.9v.821H123.153Zm-3.7,3.028a1.179,1.179,0,0,1,1.178-1.178h19A1.179,1.179,0,0,1,140.8,78.4v7.054H119.45ZM142.4,88.743H117.859a1.131,1.131,0,1,1,0-2.262H142.4a1.131,1.131,0,0,1,0,2.262Z" transform="translate(-115.7 -49.258)" fill="#301353"/><path d="M224.442,90.638,222.7,91.9a.444.444,0,0,0-.161.5l.666,2.05a.444.444,0,0,1-.683.5l-1.744-1.267a.444.444,0,0,0-.522,0l-1.744,1.267a.444.444,0,0,1-.683-.5l.666-2.05a.444.444,0,0,0-.161-.5l-1.744-1.267a.444.444,0,0,1,.261-.8H219a.444.444,0,0,0,.422-.307l.666-2.05a.444.444,0,0,1,.844,0l.666,2.05a.444.444,0,0,0,.422.307h2.155a.444.444,0,0,1,.261.8Z" transform="translate(-206.049 -83.273)" fill="#f8b500"/></g></g></svg>