<svg xmlns="http://www.w3.org/2000/svg" width="40" height="38.905" viewBox="0 0 40 38.905"><g transform="translate(-74.088 -93.81)"><g transform="translate(74.088 93.81)"><path d="M85.5,333.16H79.09v9.479a.215.215,0,0,0,.215.215h5.98a.215.215,0,0,0,.215-.215Z" transform="translate(-78.553 -306.561)" fill="#f8b500"/><path d="M204.48,166.854a4.228,4.228,0,1,0,4.228,4.228,4.228,4.228,0,0,0-4.228-4.228Zm1.142,6.154a1.322,1.322,0,0,1-.606.332.173.173,0,0,0-.126.169v.246a.176.176,0,0,1-.176.176h-.365a.176.176,0,0,1-.176-.176v-.237a.179.179,0,0,0-.141-.172,1.366,1.366,0,0,1-.677-.372,1.421,1.421,0,0,1-.372-1.028v-.215h.77v.215a.708.708,0,0,0,.192.537.776.776,0,0,0,.568.189.762.762,0,0,0,.515-.164.484.484,0,0,0,.177-.4.476.476,0,0,0-.139-.359,1.738,1.738,0,0,0-.638-.328,2.247,2.247,0,0,1-.983-.533,1.218,1.218,0,0,1-.315-.861,1.233,1.233,0,0,1,.345-.9,1.281,1.281,0,0,1,.584-.335.173.173,0,0,0,.123-.168v-.283a.176.176,0,0,1,.176-.176h.367a.176.176,0,0,1,.176.176v.281a.181.181,0,0,0,.124.175,1.213,1.213,0,0,1,.6.388,1.557,1.557,0,0,1,.323,1.028v.216h-.768v-.216a.817.817,0,0,0-.177-.563.585.585,0,0,0-.468-.188.669.669,0,0,0-.479.153.523.523,0,0,0-.157.405.479.479,0,0,0,.137.373,1.779,1.779,0,0,0,.626.314,3.3,3.3,0,0,1,.774.349,1.246,1.246,0,0,1,.405.442,1.282,1.282,0,0,1,.137.606,1.215,1.215,0,0,1-.355.9Z" transform="translate(-186.296 -158.772)" fill="#f8b500"/><path d="M300.693,188.092l.46.577a.176.176,0,0,0,.138.066h.738a.176.176,0,0,1,.172.215l-.164.719a.177.177,0,0,0,.034.149l.46.577a.176.176,0,0,1-.061.269l-.665.32a.176.176,0,0,0-.1.119l-.164.719a.176.176,0,0,1-.248.119l-.665-.32a.176.176,0,0,0-.153,0l-.665.32a.176.176,0,0,1-.248-.119l-.164-.719a.176.176,0,0,0-.1-.119l-.665-.32a.176.176,0,0,1-.061-.269l.46-.577a.176.176,0,0,0,.034-.149l-.164-.719a.176.176,0,0,1,.172-.215h.738a.177.177,0,0,0,.138-.066l.46-.577a.176.176,0,0,1,.275,0Z" transform="translate(-273.803 -177.642)" fill="#f8b500"/><path d="M145.338,188.092l.46.577a.177.177,0,0,0,.138.066h.738a.176.176,0,0,1,.172.215l-.164.719a.176.176,0,0,0,.034.149l.46.577a.176.176,0,0,1-.061.269l-.665.32a.176.176,0,0,0-.1.119l-.164.719a.176.176,0,0,1-.248.119l-.665-.32a.176.176,0,0,0-.153,0l-.665.32a.176.176,0,0,1-.248-.119l-.164-.719a.176.176,0,0,0-.1-.119l-.665-.32a.176.176,0,0,1-.061-.269l.46-.577a.176.176,0,0,0,.034-.149l-.164-.719a.176.176,0,0,1,.172-.215h.738a.177.177,0,0,0,.138-.066l.46-.577a.176.176,0,0,1,.275,0Z" transform="translate(-135.571 -177.642)" fill="#f8b500"/><path d="M113.818,121.451a3.474,3.474,0,0,0-4.272-2l-10.273,3.219a2.881,2.881,0,0,0-2.1-3.494L89,117.137a2.877,2.877,0,0,0-1.788.126l-5.47,2.218v-1.712a.833.833,0,0,0-.832-.832H74.92a.833.833,0,0,0-.832.832v12.053a.77.77,0,0,0,.77.77h6.119a.77.77,0,0,0,.77-.77v-.577l13.721,3.388a2.906,2.906,0,0,0,1.863-.163L112,125.981a3.472,3.472,0,0,0,1.816-4.529Zm-38.63,8.04V118.035h5.46v2.253h0v9.2Zm36.37-4.516-14.672,6.488a1.8,1.8,0,0,1-1.155.1l-13.984-3.453v-7.445l5.883-2.385a1.777,1.777,0,0,1,1.108-.078l8.168,2.041a1.787,1.787,0,0,1,1.286,2.223,1.791,1.791,0,0,1-1.986,1.279l-3.5-.527a.55.55,0,0,0-.164,1.087l3.5.527a2.865,2.865,0,0,0,.429.032,2.894,2.894,0,0,0,1.971-.782l11.431-3.582a2.394,2.394,0,0,1,1.684,4.474Zm-33.64-6.456a1.6,1.6,0,1,0,1.6,1.6A1.6,1.6,0,0,0,77.917,118.52Zm0,2.1a.5.5,0,1,1,.5-.5A.5.5,0,0,1,77.917,120.625Zm27.93-18.749a2.111,2.111,0,0,1-2.109-2.109.55.55,0,0,0-.55-.55H81.378a.55.55,0,0,0-.55.55,2.112,2.112,0,0,1-2.109,2.109.55.55,0,0,0-.55.55v7.48a.55.55,0,0,0,.55.55,2.112,2.112,0,0,1,2.109,2.109.55.55,0,0,0,.55.55h21.81a.55.55,0,0,0,.55-.55,2.111,2.111,0,0,1,2.109-2.109.55.55,0,0,0,.55-.55v-7.48a.55.55,0,0,0-.55-.55Zm-.55,7.527a3.217,3.217,0,0,0-2.612,2.612h-20.8a3.217,3.217,0,0,0-2.612-2.612v-6.475a3.217,3.217,0,0,0,2.612-2.612h20.8a3.217,3.217,0,0,0,2.612,2.612Zm-28.425,5.513h30.822a.55.55,0,0,0,.55-.55v-16.4a.55.55,0,0,0-.55-.55H76.872a.55.55,0,0,0-.55.55v16.4A.55.55,0,0,0,76.872,114.917Zm.55-16.4h29.723v15.3H77.422Zm2.506-4.155a.55.55,0,0,1,.55-.55H111.3a.55.55,0,0,1,.55.55v16.4a.55.55,0,1,1-1.1,0V94.909H80.477A.55.55,0,0,1,79.928,94.36Zm-1.8,1.8a.55.55,0,0,1,.55-.55H109.5a.55.55,0,0,1,.55.55v16.4a.55.55,0,0,1-1.1,0V96.712H78.675A.55.55,0,0,1,78.125,96.162Z" transform="translate(-74.088 -93.81)" fill="#301353"/></g></g></svg>