<svg xmlns="http://www.w3.org/2000/svg" width="41.443" height="40.949" viewBox="0 0 41.443 40.949"><g transform="translate(-41 -43.568)"><g transform="translate(41 43.568)"><g transform="translate(0.482 11.967)"><path d="M194.292,167.732h11.895v3.951H194.292Z" transform="translate(-180 -167.732)" fill="#f8b500"/><path d="M46,382.85H57.895V386.8H46Z" transform="translate(-46 -362.117)" fill="#f8b500"/><path d="M342.584,382.85h11.895V386.8H342.584Z" transform="translate(-313.999 -362.117)" fill="#f8b500"/></g><path d="M202.621,243.88l-3.783-2.443v-3.173a1.712,1.712,0,1,0-3.425,0v3.173l-3.783,2.443a1.713,1.713,0,0,0,1.858,2.878l3.638-2.349,3.638,2.349a1.713,1.713,0,0,0,1.858-2.877Z" transform="translate(-176.403 -217.952)" fill="#f8b500"/><path d="M55.774,59.968H67.669a.482.482,0,0,0,.482-.482V53.969a4.048,4.048,0,0,0-3.539-4.011,3.847,3.847,0,1,0-5.779,0,4.049,4.049,0,0,0-3.54,4.011v5.517A.482.482,0,0,0,55.774,59.968Zm.482-6a3.082,3.082,0,0,1,3.079-3.079h.848a.482.482,0,0,0,.221-.91,2.883,2.883,0,1,1,2.636,0,.482.482,0,0,0,.221.91h.848a3.082,3.082,0,0,1,3.079,3.079V59H56.256ZM50.319,70.691a3.847,3.847,0,1,0-5.78,0A4.049,4.049,0,0,0,41,74.7v5.517a.482.482,0,0,0,.482.482H53.377a.482.482,0,0,0,.482-.482V74.7a4.049,4.049,0,0,0-3.54-4.011Zm2.576,9.046H41.964V74.7a3.082,3.082,0,0,1,3.079-3.079h.848a.482.482,0,0,0,.221-.91,2.883,2.883,0,1,1,2.636,0,.482.482,0,0,0,.221.91h.848A3.082,3.082,0,0,1,52.895,74.7ZM78.9,70.691a3.847,3.847,0,1,0-5.779,0,4.048,4.048,0,0,0-3.54,4.011v5.517a.482.482,0,0,0,.482.482H81.962a.482.482,0,0,0,.482-.482V74.7A4.048,4.048,0,0,0,78.9,70.691Zm2.576,9.046H70.549V74.7a3.082,3.082,0,0,1,3.079-3.079h.848a.482.482,0,0,0,.221-.91,2.883,2.883,0,1,1,2.636,0,.482.482,0,0,0,.221.91H78.4A3.082,3.082,0,0,1,81.48,74.7v5.035ZM53.791,53.3a.482.482,0,0,1-.169.66,15.9,15.9,0,0,0-7.077,8.922.482.482,0,0,1-.92-.289,16.858,16.858,0,0,1,7.5-9.462A.482.482,0,0,1,53.791,53.3Zm15.861,0a.482.482,0,0,1,.66-.169,16.859,16.859,0,0,1,7.5,9.462.482.482,0,0,1-.92.289,15.9,15.9,0,0,0-7.077-8.922.481.481,0,0,1-.169-.66Zm-.761,29.094a.482.482,0,0,1-.241.637,16.911,16.911,0,0,1-13.856,0,.482.482,0,1,1,.4-.879,15.949,15.949,0,0,0,13.064,0A.482.482,0,0,1,68.891,82.395Z" transform="translate(-41 -43.568)" fill="#301353"/></g></g></svg>