<svg xmlns="http://www.w3.org/2000/svg" width="40.216" height="43.322" viewBox="0 0 40.216 43.322"><g transform="translate(-120.046 -52.528)"><g transform="translate(120.046 52.528)"><path d="M125.048,411h28.939v3.16H125.048Z" transform="translate(-124.495 -371.39)" fill="#301353"/><path d="M193.33,122.272h13.85v2.786H193.33Z" transform="translate(-185.232 -114.566)" fill="#f8b500"/><path d="M172.225,188.406h-.43a1.706,1.706,0,1,0-1.56,0h-.43A1.805,1.805,0,0,0,168,190.212v2.57a.227.227,0,0,0,.227.227H173.8a.227.227,0,0,0,.227-.227v-2.57a1.805,1.805,0,0,0-1.805-1.805Z" transform="translate(-162.701 -170.525)" fill="#f8b500"/><path d="M322.077,158.114l1.175,1.175-13.234,13.234L306.4,173.8l-.81,2.306,5.928-2.082,13.234-13.234Z" transform="translate(-285.085 -146.447)" fill="#f8b500"/><g transform="translate(0 0)"><path d="M149.538,137.137a.552.552,0,0,0-.552.552v14.645H121.151V118.377H125.7a.552.552,0,1,0,0-1.1h-5.1a.552.552,0,0,0-.552.552v35.063a.552.552,0,0,0,.552.552h28.94a.552.552,0,0,0,.552-.552v-15.2a.552.552,0,0,0-.552-.553Z" transform="translate(-120.046 -110.118)" fill="#301353"/><path d="M336.342,118.377h4.548v5.311a.552.552,0,1,0,1.1,0v-5.863a.552.552,0,0,0-.552-.552h-5.1a.552.552,0,0,0,0,1.1Z" transform="translate(-311.951 -110.118)" fill="#301353"/><path d="M188.882,63.573h13.85a.552.552,0,0,0,.552-.552V57.449a.552.552,0,0,0-.552-.552h-3.827a3.282,3.282,0,1,0-6.2,0h-3.826a.552.552,0,0,0-.552.552V63.02A.552.552,0,0,0,188.882,63.573ZM189.435,58h4.19a.552.552,0,0,0,.441-.885,2.157,2.157,0,0,1-.436-1.307,2.177,2.177,0,1,1,4.354,0,2.157,2.157,0,0,1-.436,1.307.552.552,0,0,0,.441.885h4.19v4.466H189.435Z" transform="translate(-180.785 -52.528)" fill="#301353"/><path d="M177.107,290H163.552a.552.552,0,1,0,0,1.1h13.554a.552.552,0,0,0,0-1.1Z" transform="translate(-158.254 -263.76)" fill="#301353"/><path d="M183,329H163.552a.552.552,0,0,0,0,1.1H183a.552.552,0,0,0,0-1.1Z" transform="translate(-158.254 -298.451)" fill="#301353"/><path d="M183,368H163.552a.552.552,0,0,0,0,1.1H183a.552.552,0,0,0,0-1.1Z" transform="translate(-158.254 -333.142)" fill="#301353"/><path d="M320.692,146.49l-3.845-3.845a.552.552,0,0,0-.781,0l-13.234,13.234a.545.545,0,0,0-.074.093c-.005.008-.009.017-.014.026a.556.556,0,0,0-.038.079l0,.01-2.082,5.928a.552.552,0,0,0,.521.735.546.546,0,0,0,.183-.031l5.928-2.082.01,0a.531.531,0,0,0,.079-.038l.026-.014a.554.554,0,0,0,.093-.074l13.234-13.234a.552.552,0,0,0,0-.781Zm-13.625,12.843L304,156.269l10.1-10.1,3.064,3.064Zm-3.615-2.053,2.6,2.6-4.014,1.41Zm14.5-8.832-3.064-3.064,1.568-1.568,3.064,3.064Z" transform="translate(-280.638 -132.543)" fill="#301353"/><path d="M256.384,192.6a.552.552,0,0,0,.552-.552v-2.994a.552.552,0,0,0-.552-.552H246.052a.552.552,0,0,0-.552.552v6.906a.552.552,0,0,0,.552.552h6.087a.552.552,0,0,0,0-1.1H246.6v-5.8h9.226v2.441A.552.552,0,0,0,256.384,192.6Z" transform="translate(-231.638 -173.476)" fill="#301353"/></g></g></g></svg>