<svg xmlns="http://www.w3.org/2000/svg" width="42.858" height="27.163" viewBox="0 0 42.858 27.163"><g transform="translate(-33 -114.666)"><path d="M96.666,316.69h30.622v1.727H96.666Z" transform="translate(-57.548 -182.61)" fill="#f8b500"/><g transform="translate(33 114.666)"><path d="M65.48,136.96a.48.48,0,0,0,.48-.48V116.107a.481.481,0,0,1,.48-.48h33.826a.481.481,0,0,1,.48.48V136.48a.48.48,0,1,0,.961,0V116.107a1.443,1.443,0,0,0-1.441-1.441H66.441A1.443,1.443,0,0,0,65,116.107V136.48A.48.48,0,0,0,65.48,136.96Z" transform="translate(-61.925 -114.666)" fill="#301353"/><path d="M92.146,139.666a.48.48,0,0,0-.48.48V158.4a.48.48,0,0,0,.48.48h30.622a.48.48,0,0,0,.48-.48V140.146a.48.48,0,0,0-.48-.48Zm30.142,18.258H92.627v-17.3h29.661v17.3Z" transform="translate(-86.028 -137.264)" fill="#301353"/><path d="M73.808,354.666H35.05a2.05,2.05,0,1,0,0,4.1H73.809a2.05,2.05,0,1,0,0-4.1Zm0,3.139H35.05a1.089,1.089,0,1,1,0-2.178H73.809a1.089,1.089,0,1,1,0,2.178Z" transform="translate(-33 -331.603)" fill="#301353"/></g><path d="M214.737,208.346a.48.48,0,0,0-.656-.176l-4.18,2.414-4.18-2.414a.48.48,0,0,0-.48.832l4.18,2.414v4.827a.48.48,0,0,0,.961,0v-4.827l4.18-2.414A.48.48,0,0,0,214.737,208.346Z" transform="translate(-155.471 -84.461)" fill="#f8b500"/><path d="M209.9,192.722a.481.481,0,0,1-.24-.064l-4.42-2.552a.481.481,0,0,1-.24-.416v-5.1a.481.481,0,0,1,.24-.416l4.42-2.552a.481.481,0,0,1,.48,0l4.42,2.552a.481.481,0,0,1,.24.416v5.1a.481.481,0,0,1-.24.416l-4.42,2.552A.481.481,0,0,1,209.9,192.722Zm-3.94-3.31,3.94,2.275,3.94-2.275v-4.549l-3.94-2.275-3.94,2.275Zm8.36.277h0Z" transform="translate(-155.472 -60.459)" fill="#f8b500"/></g></svg>