<svg xmlns="http://www.w3.org/2000/svg" width="40.384" height="35.052" viewBox="0 0 40.384 35.052"><g transform="translate(-34.85 -64.052)"><g transform="translate(34.85 64.052)"><path d="M137.407,233.316v-1.162h1.837v1.162l-.3.262.768,4.273-1.351,4.539-1.382-4.539.781-4.273Z" transform="translate(-127.653 -216.806)" fill="#f8b500"/><path d="M66.272,307.387v10.954a1.827,1.827,0,0,0,1.243-1.73V306.5h-.356A.887.887,0,0,0,66.272,307.387Z" transform="translate(-63.403 -284.363)" fill="#301353"/><path d="M96.377,352.474H93.7a.183.183,0,0,1-.183-.183v-.73a.183.183,0,0,1,.183-.183h2.678a.183.183,0,0,1,.183.183v.73A.183.183,0,0,1,96.377,352.474Z" transform="translate(-88.16 -325.144)" fill="#301353"/><path d="M223.96,306.5H223.6v10.111a1.827,1.827,0,0,0,1.243,1.73V307.387a.887.887,0,0,0-.887-.887Z" transform="translate(-206.37 -284.363)" fill="#301353"/><path d="M176.823,352.474H179.5a.183.183,0,0,0,.183-.183v-.73a.183.183,0,0,0-.183-.183h-2.678a.183.183,0,0,0-.183.183v.73A.183.183,0,0,0,176.823,352.474Z" transform="translate(-163.694 -325.144)" fill="#301353"/><g transform="translate(25.532 19.93)"><path d="M314.484,334.449V343.2a1.46,1.46,0,0,0,.993-1.383V333.74h-.285a.709.709,0,0,0-.709.709Z" transform="translate(-314.484 -329.046)" fill="#301353"/><path d="M359.758,282.334l2.129,3.707,2.074-3.707Z" transform="translate(-355.624 -282.334)" fill="#f8b500"/><path d="M440.447,333.742h-.285v8.079a1.46,1.46,0,0,0,.993,1.383v-8.753a.709.709,0,0,0-.709-.709Z" transform="translate(-428.687 -329.048)" fill="#301353"/></g><g transform="translate(0 0)"><path d="M169.276,135.164a.668.668,0,1,0-.668-.668A.668.668,0,0,0,169.276,135.164Z" transform="translate(-156.395 -127.457)" fill="#301353"/><path d="M120.9,133.828a.668.668,0,1,0,.668.668A.668.668,0,0,0,120.9,133.828Z" transform="translate(-112.436 -127.457)" fill="#301353"/><path d="M136.663,168.338a1.157,1.157,0,0,1-1.634,0,.457.457,0,0,0-.646.646,2.07,2.07,0,0,0,2.925,0,.456.456,0,1,0-.645-.646Z" transform="translate(-125.174 -158.695)" fill="#301353"/><path d="M86.554,70.351a4,4,0,0,0,3.3-2.236,9.251,9.251,0,0,0,6.279,2.37,8.271,8.271,0,0,0,1.505-.134.456.456,0,0,0,.373-.449,6,6,0,0,0-12,0,.456.456,0,0,0,.538.449Zm5.462-5.386a5.035,5.035,0,0,1,5.072,4.549c-2.63.329-5.773-.8-7.032-2.573a.456.456,0,0,0-.372-.192.462.462,0,0,0-.086.008.457.457,0,0,0-.358.341,2.738,2.738,0,0,1-2.276,2.23A5.043,5.043,0,0,1,92.016,64.965Z" transform="translate(-81.344 -64.052)" fill="#301353"/><path d="M87.975,142.427a.457.457,0,0,0-.9.146c.528,3.275,3.009,5.652,5.9,5.652s5.37-2.377,5.9-5.652a.457.457,0,0,0-.9-.146c-.457,2.831-2.558,4.885-5,4.885s-4.54-2.054-5-4.885Z" transform="translate(-82.3 -134.922)" fill="#301353"/><path d="M52.93,213.09H48.981v-1.08a.485.485,0,0,0-.654-.57l-2.806,1.344-2.805-1.344a.455.455,0,0,0-.646.491.452.452,0,0,0-.008.079v1.08H38.116a3.269,3.269,0,0,0-3.266,3.266v13.834a2.283,2.283,0,0,0,4.36.948,10.933,10.933,0,0,0,6.272,1.856h.083a10.932,10.932,0,0,0,6.271-1.856,2.283,2.283,0,0,0,4.36-.948V216.356a3.27,3.27,0,0,0-3.266-3.266ZM48.2,219.346l.8.66-2.987,3.847v-.26L48.865,214h1.991l-1.1,3.915-1.45.661a.456.456,0,0,0-.1.767Zm-5.2-.412a.456.456,0,0,0-.263-.356l-1.45-.661L40.189,214h1.992l2.919,9.592v.345l-3.054-3.933.8-.66A.457.457,0,0,0,43.006,218.935Zm2.516-5.188a.458.458,0,0,0,.2-.045l2.349-1.125v.9l-2.517,8.462-2.576-8.464v-.9l2.349,1.125a.457.457,0,0,0,.2.045ZM38.116,214h1.125l1.231,4.367a.457.457,0,0,0,.25.291l.978.446-.577.477a.456.456,0,0,0-.07.632l3.989,5.138a.454.454,0,0,0,.058.154v6.565a9.637,9.637,0,0,1-5.682-1.924v-10.07a.457.457,0,1,0-.913,0v6.869H35.763V216.355A2.355,2.355,0,0,1,38.116,214Zm-.982,17.558a1.373,1.373,0,0,1-1.371-1.371V227.86h2.742v2.329A1.373,1.373,0,0,1,37.134,231.56Zm16.778,0a1.373,1.373,0,0,1-1.371-1.371V227.86h2.742v2.329A1.373,1.373,0,0,1,53.912,231.56Zm1.371-4.613H52.541v-6.869a.457.457,0,1,0-.913,0v10.07a9.611,9.611,0,0,1-5.614,1.921v-6.728l3.979-5.126a.456.456,0,0,0-.07-.632l-.577-.477.978-.446a.457.457,0,0,0,.25-.291L51.8,214H52.93a2.355,2.355,0,0,1,2.353,2.353v10.592Z" transform="translate(-34.85 -197.942)" fill="#301353"/><path d="M396.788,195.768a.534.534,0,1,0,.534.534A.534.534,0,0,0,396.788,195.768Z" transform="translate(-363.256 -183.742)" fill="#301353"/><path d="M358.134,195.768a.534.534,0,1,0,.534.534A.534.534,0,0,0,358.134,195.768Z" transform="translate(-328.132 -183.742)" fill="#301353"/><path d="M369.749,222.366a.831.831,0,0,1-1.176,0,.457.457,0,0,0-.646.646,1.744,1.744,0,0,0,2.467,0,.456.456,0,0,0-.646-.646Z" transform="translate(-337.395 -207.79)" fill="#301353"/><path d="M302.907,271.572h-3.518l-.018,0-.044,0a.438.438,0,0,0-.049.009l-.03.009a.48.48,0,0,0-.055.021l-.021.011a.457.457,0,0,0-.055.035l-.015.012a.459.459,0,0,0-.052.049l-.009.011a.458.458,0,0,0-.046.066l0,0-1.978,3.53-2.026-3.534-.009-.013a.446.446,0,0,0-.029-.04c-.009-.011-.017-.022-.026-.032a.435.435,0,0,0-.033-.03c-.011-.01-.022-.019-.034-.028s-.025-.016-.037-.023-.025-.015-.038-.021-.028-.011-.042-.016-.028-.01-.042-.013a.384.384,0,0,0-.041-.007.445.445,0,0,0-.049,0h-3.534a2.7,2.7,0,0,0-2.7,2.7v11.054a1.916,1.916,0,0,0,3.61.9,8.885,8.885,0,0,0,4.975,1.436h.069A8.882,8.882,0,0,0,302,286.223a1.916,1.916,0,0,0,3.611-.9V274.273A2.7,2.7,0,0,0,302.907,271.572Zm1.788,2.7v8.372h-2.008v-5.4a.457.457,0,0,0-.913,0v8a7.575,7.575,0,0,1-4.3,1.482v-9.649l.654.408a.456.456,0,0,0,.638-.161l2.764-4.845h1.376a1.79,1.79,0,0,1,1.788,1.788Zm-10.368-1.788,2.076,3.621-.576.359-2.27-3.98Zm5.331,0h.822l-2.27,3.98-.579-.361Zm-8.585,0h1.433l2.764,4.845a.457.457,0,0,0,.638.161l.654-.408v9.652a7.594,7.594,0,0,1-4.356-1.485v-8a.457.457,0,0,0-.913,0v5.4h-2.008v-8.372a1.79,1.79,0,0,1,1.788-1.788Zm-.784,13.846a1,1,0,0,1-1-1v-1.769h2.008v1.769A1,1,0,0,1,290.289,286.331Zm13.4,0a1,1,0,0,1-1-1v-1.769H304.7v1.769A1,1,0,0,1,303.691,286.331Z" transform="translate(-265.224 -252.625)" fill="#301353"/><path d="M337.019,168.616c-.278,0-.557.012-.828.023a7.16,7.16,0,0,1-1.951-.091,5.892,5.892,0,0,1-2.143-1.033.456.456,0,0,0-.7.288,4.415,4.415,0,0,1-1.249,2.091.455.455,0,0,0-.892.131c0,3.1,2.192,5.631,4.886,5.631,2.653,0,4.817-2.449,4.883-5.488,0-.021,0-.041,0-.062,0,0,0-.01,0-.015,0-.022,0-.044,0-.066a.457.457,0,0,0-.913,0c0,.037,0,.074,0,.11a.53.53,0,0,1-.354.471v-1.25a.741.741,0,0,0-.74-.74Zm.894,2.894a4.109,4.109,0,0,1-3.77,3.233,4.194,4.194,0,0,1-3.869-3.646l.19-.2a7.223,7.223,0,0,0,1.643-2.282,5.916,5.916,0,0,0,1.922.825,7.967,7.967,0,0,0,2.2.115c.212-.009.415-.017.617-.021v1.278a.741.741,0,0,0,.74.74,1.45,1.45,0,0,0,.327-.039Z" transform="translate(-302.376 -157.999)" fill="#301353"/><path d="M311.743,140.994v.02a.457.457,0,1,0,.913,0v-.02a5.112,5.112,0,0,0-.784-2.676,5.749,5.749,0,1,1,9.786.015,5.085,5.085,0,0,0-.775,2.681.457.457,0,1,0,.913,0,4.172,4.172,0,0,1,.637-2.2,6.662,6.662,0,1,0-11.339-.018,4.2,4.2,0,0,1,.648,2.2Z" transform="translate(-284.975 -122.746)" fill="#301353"/></g></g></g></svg>