<svg xmlns="http://www.w3.org/2000/svg" width="39.855" height="31.79" viewBox="0 0 39.855 31.79"><g transform="translate(-49.003 -89.5)"><g transform="translate(49.003 89.5)"><g transform="translate(0.481 7.824)"><path d="M115.644,239.885a1.484,1.484,0,1,1,2.1,2.1l1.268-1.267a1.48,1.48,0,0,1,1.057-.434l-7.481-7.481-1.747,1.747,2.716,2.716,1.691,3.018Z" transform="translate(-105.368 -226.83)" fill="#f8b500"/><path d="M263.54,374.99l-.738-.738-.056.072a1.485,1.485,0,0,1-1.619,2.082l-.161.207.475.475a1.484,1.484,0,1,0,2.1-2.1Z" transform="translate(-241.041 -354.663)" fill="#f8b500"/><path d="M281.821,364.132l-.056.013a1.2,1.2,0,0,0-.769.63,1.482,1.482,0,0,1-.332.425,1.518,1.518,0,0,1-2.07-.1l-.151-.151h0l1.279,1.279a1.484,1.484,0,0,0,2.1-2.1Z" transform="translate(-256.835 -345.517)" fill="#f8b500"/><path d="M308.019,344.96l-.076.013a1,1,0,0,0-.723.578,1.485,1.485,0,0,1-2.392.416l1.707,1.706a.869.869,0,0,0,1.484-.615,1.484,1.484,0,0,0,0-2.1Z" transform="translate(-280.68 -328.191)" fill="#f8b500"/><path d="M329.025,327.934l-.032,0a.963.963,0,0,0-.761.575,1.483,1.483,0,0,1-.322.452,1.522,1.522,0,0,1-2.116-.063l-.553-.553,1.642,1.642a1.525,1.525,0,0,0,2.11.076,1.484,1.484,0,0,0,.033-2.131Z" transform="translate(-299.127 -312.804)" fill="#f8b500"/><path d="M181.936,328.178l-.064.064Z" transform="translate(-169.562 -313.024)" fill="#301353"/><path d="M144.688,309.147a1.484,1.484,0,0,1-2.1-2.1l-1.427,1.427a1.484,1.484,0,0,0,2.1,2.1Z" transform="translate(-132.378 -293.929)" fill="#f8b500"/><path d="M206.9,376.156a1.484,1.484,0,0,1-.05-2.046l-.053.05-1.325,1.325a1.484,1.484,0,0,0,2.1,2.1l1.325-1.324.05-.053A1.485,1.485,0,0,1,206.9,376.156Z" transform="translate(-190.498 -354.534)" fill="#f8b500"/><path d="M161.854,335.595a1.484,1.484,0,1,1-2.1-2.1l-1.427,1.427a1.484,1.484,0,0,0,2.1,2.1Z" transform="translate(-147.891 -317.831)" fill="#f8b500"/><path d="M184.752,346h0l-1.1,1.1a1.484,1.484,0,0,1-2.1-2.1l1.1-1.1-2.525,2.525a1.484,1.484,0,0,0,2.1,2.1Z" transform="translate(-167.592 -327.236)" fill="#f8b500"/><path d="M62.535,175.431l-3.777,3.777a.339.339,0,0,1-.479,0L54.1,175.03a.339.339,0,0,1,0-.479l3.777-3.777Z" transform="translate(-54.002 -170.774)" fill="#f8b500"/><path d="M381.929,182.366l-2.841-2.841,4.657-4.657,2.841,2.841a.339.339,0,0,1,0,.479l-4.178,4.178A.339.339,0,0,1,381.929,182.366Z" transform="translate(-347.791 -174.474)" fill="#f8b500"/><path d="M325.308,223.731l-.489-.489-5.781,5.781,2.756,2.756,2.8-4.325,2.218-2.218Z" transform="translate(-293.522 -218.191)" fill="#f8b500"/></g><g transform="translate(0 0.897)"><path d="M88.618,108.642l-9.582-9.582a.821.821,0,0,0-1.16,0L73.7,103.237a.821.821,0,0,0,0,1.16l.235.235-2.4,2.4h-3.1a2.053,2.053,0,0,0-1.38.531l-1.532-.5-1.745-1.745.384-.384a.82.82,0,0,0,0-1.16L59.984,99.6a.82.82,0,0,0-1.16,0l-9.582,9.582a.821.821,0,0,0,0,1.16l4.178,4.178a.821.821,0,0,0,1.16,0l.376-.376,2.328,2.328.848,1.513a.481.481,0,1,0,.84-.47l-.88-1.571a.481.481,0,0,0-.08-.105l-2.375-2.375L63.1,106l1.827,1.827a.482.482,0,0,0,.192.118l1.168.378-3.411,3.41a1.984,1.984,0,1,0,2.79,2.823l3.317-3.317,8.433,8.433a.481.481,0,0,0,.34.141.448.448,0,0,0,.051,0,.482.482,0,0,0,.354-.217l2.774-4.282,1.841-1.841.507.507h0a.822.822,0,0,0,1.16,0l4.178-4.178a.82.82,0,0,0,0-1.16Zm-38.594,1.122,9.381-9.381,3.976,3.976L54,113.74Zm30.192,4.906a.484.484,0,0,0-.064.079l-2.478,3.825-8.352-8.352a.482.482,0,0,0-.681,0l-3.658,3.658a1.023,1.023,0,0,1-1.579-.164,1.03,1.03,0,0,1,.151-1.3l4.1-4.1a1.1,1.1,0,0,1,.783-.324h3.3a.481.481,0,0,0,.34-.141l2.542-2.542,3.74,3.74,3.74,3.74Zm3.745-1.371h0Zm-.1-.1-.746-.746-4.989-4.989-3.645-3.645,3.976-3.976,9.381,9.381Z" transform="translate(-49.003 -98.82)" fill="#301353"/><path d="M145.642,303.489a3.334,3.334,0,0,1-1.117-3.822,1.966,1.966,0,0,0-3.355-1.39l-.074.074a1.962,1.962,0,0,0-3.292-.907l-1.492,1.492a1.963,1.963,0,0,0,1.169,3.341,1.964,1.964,0,0,0,1.873,2.56c.047,0,.094,0,.141-.007a1.957,1.957,0,0,0,2.439,2.044,1.964,1.964,0,0,0,3.348,1.245l1.324-1.325a1.968,1.968,0,0,0,0-2.78,1.947,1.947,0,0,0-.964-.527Zm-8.65-3.872,1.492-1.492a1,1,0,1,1,1.418,1.418l-1.492,1.492a1,1,0,0,1-1.418-1.418Zm1.652,3.965a1,1,0,0,1,0-1.418l3.206-3.206a1,1,0,0,1,1.418,1.418h0l-3.206,3.206A1,1,0,0,1,138.644,303.582Zm2.1,2.1a1,1,0,0,1,0-1.418l2.525-2.525a1,1,0,0,1,1.418,1.418l-2.525,2.525A1,1,0,0,1,140.743,305.681Zm5.183.434-1.325,1.325a1,1,0,0,1-1.418-1.418l1.324-1.324a1,1,0,0,1,1.418,1.418Z" transform="translate(-127.386 -277.803)" fill="#301353"/><path d="M266.076,323.075a.481.481,0,0,0,0,.681,1,1,0,1,1-1.418,1.418l-1.686-1.686a.481.481,0,1,0-.681.681l1.226,1.225h0a1,1,0,0,1-1.418,1.418l-1.465-1.465a.481.481,0,1,0-.681.681l1.21,1.21v0a1,1,0,1,1-1.418,1.418l-1.279-1.278a.481.481,0,1,0-.681.681l.153.153h0l.738.738a1,1,0,0,1-1.418,1.418l-.475-.475a.481.481,0,0,0-.681.681l.475.475a4.329,4.329,0,0,1,3.876-1.136,1.962,1.962,0,0,0,1.962-1.885,1.98,1.98,0,0,0,.391.039,1.963,1.963,0,0,1,2.559-1.639,1.966,1.966,0,0,0,1.39-3.355.481.481,0,0,0-.681,0Z" transform="translate(-236.038 -301.359)" fill="#301353"/></g><path d="M220,89.5a3.835,3.835,0,1,0,3.835,3.835A3.835,3.835,0,0,0,220,89.5Zm2.4,3.326-1.067.775a.272.272,0,0,0-.1.3l.408,1.255a.272.272,0,0,1-.418.3l-1.067-.775a.272.272,0,0,0-.319,0l-1.067.775a.272.272,0,0,1-.418-.3l.408-1.255a.272.272,0,0,0-.1-.3l-1.067-.775a.272.272,0,0,1,.16-.491h1.319a.272.272,0,0,0,.258-.188l.408-1.255a.272.272,0,0,1,.517,0l.408,1.255a.272.272,0,0,0,.258.188h1.319a.272.272,0,0,1,.16.491Z" transform="translate(-200.069 -89.5)" fill="#f8b500"/></g></g></svg>