<svg width="72" height="72" viewBox="0 0 72 72" fill="none" xmlns="http://www.w3.org/2000/svg">
<g clip-path="url(#clip0)">
<path d="M54.0763 56.7748H53.8052V56.623H54.5353V56.7748H54.2658V57.5318H54.0763V56.7748V56.7748ZM55.5326 56.8143H55.5284L55.2595 57.5321H55.1365L54.8695 56.8143H54.8663V57.5321H54.6876V56.6233H54.9506L55.1982 57.2668L55.4449 56.6233H55.707V57.5321H55.5325L55.5326 56.8143V56.8143Z" fill="#E76F00"/>
<path d="M29.7973 38.1923C29.7973 38.1923 27.9103 39.2897 31.1402 39.661C35.0532 40.1074 37.053 40.0434 41.3651 39.2273C41.3651 39.2273 42.4988 39.9381 44.082 40.5538C34.4155 44.6967 22.2048 40.3138 29.7973 38.1923ZM28.6161 32.7861C28.6161 32.7861 26.4997 34.3528 29.732 34.6871C33.9119 35.1183 37.2129 35.1536 42.9248 34.0537C42.9248 34.0537 43.715 34.8547 44.9572 35.2927C33.2697 38.7102 20.2521 35.5622 28.6161 32.7861" fill="#5382A1"/>
<path d="M38.5743 23.6153C40.9561 26.3576 37.9486 28.8254 37.9486 28.8254C37.9486 28.8254 43.9962 25.7033 41.2189 21.7937C38.6247 18.1476 36.6354 16.3362 47.4049 10.0903C47.405 10.0902 30.5003 14.3122 38.5743 23.6153" fill="#E76F00"/>
<path d="M51.3587 42.191C51.3587 42.191 52.7551 43.3418 49.8208 44.2317C44.2411 45.922 26.5977 46.4324 21.6964 44.2992C19.9346 43.5326 23.2386 42.4689 24.2779 42.2457C25.3618 42.0107 25.9812 42.0545 25.9812 42.0545C24.0218 40.6742 13.3165 44.7647 20.5435 45.9363C40.2523 49.1325 56.471 44.497 51.3587 42.191V42.191ZM30.7047 27.1846C30.7047 27.1846 21.7301 29.3162 27.5266 30.0903C29.974 30.4179 34.8529 30.3438 39.3974 29.963C43.1114 29.6497 46.841 28.9837 46.841 28.9837C46.841 28.9837 45.5313 29.5446 44.5838 30.1914C35.4703 32.5884 17.8647 31.4732 22.9331 29.0215C27.2195 26.9495 30.7047 27.1846 30.7047 27.1846V27.1846ZM46.804 36.1835C56.0683 31.3694 51.7849 26.743 48.795 27.3664C48.0622 27.5189 47.7355 27.6511 47.7355 27.6511C47.7355 27.6511 48.0076 27.2249 48.527 27.0404C54.4417 24.961 58.9906 33.1735 46.6176 36.4263C46.6176 36.4263 46.7612 36.2982 46.804 36.1835Z" fill="#5382A1"/>
<path d="M41.2185 0.00463867C41.2185 0.00463867 46.3492 5.13696 36.3522 13.0294C28.3357 19.3602 34.5242 22.9699 36.3489 27.0943C31.6696 22.8722 28.2356 19.1557 30.5394 15.6967C33.9208 10.619 43.2886 8.15723 41.2185 0.00463867" fill="#E76F00"/>
<path d="M31.615 49.2285C40.5076 49.7977 54.1632 48.9127 54.4865 44.7051C54.4865 44.7051 53.8649 46.3001 47.1372 47.567C39.5474 48.9952 30.186 48.8285 24.6338 47.9131C24.6341 47.9129 25.7705 48.8537 31.615 49.2285" fill="#5382A1"/>
<path d="M30.1578 65.3066C29.3189 66.0342 28.4329 66.4427 27.6378 66.4427C26.5029 66.4427 25.8898 65.7622 25.8898 64.6707C25.8898 63.49 26.5469 62.6268 29.1824 62.6268H30.1577L30.1578 65.3066V65.3066ZM32.4726 67.9183V59.834C32.4726 57.7687 31.2947 56.4061 28.4548 56.4061C26.7968 56.4061 25.3445 56.8154 24.1641 57.3376L24.5048 58.7686C25.4342 58.4275 26.6372 58.1099 27.818 58.1099C29.454 58.1099 30.1578 58.7686 30.1578 60.1304V61.1523H29.3413C25.3665 61.1523 23.5734 62.6952 23.5734 65.011C23.5734 67.0098 24.755 68.1459 26.9798 68.1459C28.4099 68.1459 29.4774 67.5554 30.4754 66.6913L30.6565 67.9186L32.4726 67.9183V67.9183ZM40.1976 67.9183H37.3107L33.8362 56.6108H36.3575L38.5134 63.5581L38.9926 65.6475C40.0833 62.6265 40.8549 59.5617 41.2407 56.6108H43.6932C43.036 60.3342 41.8536 64.4212 40.1976 67.9183V67.9183ZM51.2728 65.3066C50.4323 66.0342 49.5449 66.4427 48.7497 66.4427C47.6168 66.4427 47.002 65.7622 47.002 64.6707C47.002 63.49 47.6604 62.6268 50.2958 62.6268H51.2728V65.3066ZM53.5873 67.9183V59.834C53.5873 57.7687 52.4066 56.4061 49.5698 56.4061C47.9108 56.4061 46.4579 56.8154 45.2781 57.3376L45.6184 58.7686C46.548 58.4275 47.7533 58.1099 48.9332 58.1099C50.568 58.1099 51.2728 58.7686 51.2728 60.1304V61.1523H50.4548C46.479 61.1523 44.6866 62.6952 44.6866 65.011C44.6866 67.0098 45.8673 68.1459 48.0916 68.1459C49.5227 68.1459 50.5898 67.5554 51.5893 66.6913L51.7711 67.9186L53.5873 67.9183V67.9183ZM21.0354 69.8384C20.3755 70.8019 19.3097 71.5641 18.1429 71.9953L17 70.6504C17.8881 70.1947 18.6498 69.4587 19.0037 68.7733C19.3098 68.1636 19.4365 67.3778 19.4365 65.4987V52.5894H21.8958V65.3218C21.8957 67.8339 21.6948 68.8488 21.0354 69.8384" fill="#E76F00"/>
</g>
<defs>
<clipPath id="clip0">
<rect width="38.7072" height="72" fill="white" transform="translate(17)"/>
</clipPath>
</defs>
</svg>
